<?xml version="1.0" encoding="utf-8"?>
<!-- Generator: Adobe Illustrator 16.0.0, SVG Export Plug-In . SVG Version: 6.00 Build 0)  -->
<!DOCTYPE svg PUBLIC "-//W3C//DTD SVG 1.1//EN" "http://www.w3.org/Graphics/SVG/1.1/DTD/svg11.dtd">
<svg version="1.1" id="Livello_1" xmlns="http://www.w3.org/2000/svg" xmlns:xlink="http://www.w3.org/1999/xlink" x="0px" y="0px"
	 width="42.551px" height="24.667px" viewBox="0 -0.752 42.551 24.667" enable-background="new 0 -0.752 42.551 24.667"
	 xml:space="preserve">
<path fill="none" d="M11.589,4.754C8.5,4.754,5.799,6.82,5,9.792c-0.798,2.974,0.506,6.107,3.18,7.646
	c2.673,1.537,6.05,1.094,8.232-1.084l1.447-1.443l-3.37-3.359l3.37-3.361l-1.447-1.445C15.136,5.466,13.398,4.75,11.589,4.754
	L11.589,4.754z M24.605,14.911l1.446,1.443c1.949,1.943,4.884,2.525,7.433,1.475c2.548-1.053,4.209-3.529,4.209-6.279
	c0-2.749-1.661-5.227-4.209-6.278c-2.549-1.052-5.481-0.47-7.433,1.474L24.605,8.19l3.369,3.361L24.605,14.911z"/>
<path fill="#71C1B3" d="M24.605,8.189l-3.374,3.36l-3.373,3.359l-1.447,1.444c-1.95,1.944-4.883,2.526-7.432,1.476
	c-2.548-1.054-4.21-3.531-4.21-6.281c0-2.748,1.662-5.227,4.21-6.277c2.549-1.052,5.482-0.47,7.432,1.474l1.447,1.445l3.373-3.362
	l-1.45-1.445c-4.525-4.51-11.863-4.51-16.388,0c-4.525,4.51-4.525,11.824,0,16.333s11.863,4.51,16.388,0l1.45-1.445l3.374-3.359
	l3.369-3.359L24.605,8.189z"/>
<path fill="#E4398B" d="M39.066,3.382c-4.524-4.508-11.858-4.508-16.385,0l-1.45,1.445l-3.373,3.362l-3.37,3.36l3.37,3.359
	l3.373-3.359l3.374-3.36l1.446-1.445C28,4.8,30.935,4.218,33.484,5.27c2.548,1.051,4.209,3.53,4.209,6.279
	c0,2.748-1.661,5.227-4.209,6.279c-2.549,1.051-5.481,0.469-7.433-1.476l-1.446-1.444l-3.374,3.36l1.45,1.444
	c2.916,2.972,7.211,4.15,11.241,3.091c4.033-1.063,7.181-4.201,8.246-8.22C43.232,10.567,42.047,6.289,39.066,3.382z"/>
<linearGradient id="SVGID_1_" gradientUnits="userSpaceOnUse" x1="-721.1357" y1="66.7329" x2="-720.4104" y2="67.3038" gradientTransform="matrix(10.364 0 0 8.187 7485.5361 -544.7015)">
	<stop  offset="0.41" style="stop-color:#4797A1;stop-opacity:0"/>
	<stop  offset="0.49" style="stop-color:#4797A1;stop-opacity:0.04"/>
	<stop  offset="0.59" style="stop-color:#4797A1;stop-opacity:0.15"/>
	<stop  offset="0.71" style="stop-color:#4797A1;stop-opacity:0.33"/>
	<stop  offset="0.84" style="stop-color:#4797A1;stop-opacity:0.58"/>
	<stop  offset="0.98" style="stop-color:#4797A1;stop-opacity:0.9"/>
	<stop  offset="1" style="stop-color:#4797A1;stop-opacity:0.95"/>
</linearGradient>
<path fill="url(#SVGID_1_)" d="M19.782,3.382c-2.17-2.168-5.12-3.384-8.193-3.38c-0.235,0-0.473,0-0.712,0.025v4.768
	c2.05-0.227,4.091,0.49,5.545,1.949l1.446,1.445l3.373-3.362L19.782,3.382z"/>
<linearGradient id="SVGID_2_" gradientUnits="userSpaceOnUse" x1="-720.1284" y1="67.4438" x2="-720.8554" y2="66.8712" gradientTransform="matrix(10.342 0 0 8.174 7478.3354 -529.8368)">
	<stop  offset="0.41" style="stop-color:#BD1F2D;stop-opacity:0"/>
	<stop  offset="0.48" style="stop-color:#BD1F2D;stop-opacity:0.03"/>
	<stop  offset="0.57" style="stop-color:#BD1F2D;stop-opacity:0.12"/>
	<stop  offset="0.68" style="stop-color:#BD1F2D;stop-opacity:0.28"/>
	<stop  offset="0.79" style="stop-color:#BD1F2D;stop-opacity:0.49"/>
	<stop  offset="0.92" style="stop-color:#BD1F2D;stop-opacity:0.76"/>
	<stop  offset="1" style="stop-color:#BD1F2D;stop-opacity:0.95"/>
</linearGradient>
<path fill="url(#SVGID_2_)" d="M22.681,19.715c2.168,2.164,5.11,3.381,8.18,3.379c0.236,0,0.476,0,0.714-0.023v-4.752
	c-0.238,0.021-0.48,0.037-0.724,0.037c-1.81,0.006-3.545-0.711-4.822-1.988l-1.446-1.445l-3.351,3.351L22.681,19.715z"/>
</svg>
