<svg xmlns="http://www.w3.org/2000/svg" width="142" height="24" viewBox="0 0 142 24">
    <defs>
        <linearGradient id="prefix__a" x1="6.748%" x2="79.294%" y1="21.481%" y2="78.567%">
            <stop offset="41%" stop-color="#4696A0" stop-opacity="0"/>
            <stop offset="49%" stop-color="#4696A0" stop-opacity=".04"/>
            <stop offset="59%" stop-color="#4696A0" stop-opacity=".15"/>
            <stop offset="71%" stop-color="#4696A0" stop-opacity=".33"/>
            <stop offset="84%" stop-color="#4696A0" stop-opacity=".58"/>
            <stop offset="98%" stop-color="#4696A0" stop-opacity=".9"/>
            <stop offset="100%" stop-color="#4696A0" stop-opacity=".95"/>
        </linearGradient>
        <linearGradient id="prefix__b" x1="93.36%" x2="20.658%" y1="78.573%" y2="21.306%">
            <stop offset="41%" stop-color="#BE1E2D" stop-opacity="0"/>
            <stop offset="48%" stop-color="#BE1E2D" stop-opacity=".03"/>
            <stop offset="57%" stop-color="#BE1E2D" stop-opacity=".12"/>
            <stop offset="68%" stop-color="#BE1E2D" stop-opacity=".28"/>
            <stop offset="79%" stop-color="#BE1E2D" stop-opacity=".49"/>
            <stop offset="92%" stop-color="#BE1E2D" stop-opacity=".76"/>
            <stop offset="100%" stop-color="#BE1E2D" stop-opacity=".95"/>
        </linearGradient>
    </defs>
    <g fill="none" fill-rule="evenodd">
        <path d="M11.59 4.754C8.501 4.754 5.8 6.82 5 9.791c-.798 2.972.506 6.108 3.18 7.646 2.673 1.537 6.05 1.093 8.232-1.083l1.447-1.445-3.37-3.359 3.37-3.361-1.447-1.445c-1.276-1.278-3.013-1.995-4.823-1.99zM24.605 14.909l1.447 1.445c1.95 1.944 4.883 2.526 7.432 1.474 2.548-1.052 4.21-3.53 4.21-6.28 0-2.748-1.662-5.227-4.21-6.278-2.549-1.052-5.482-.47-7.432 1.474l-1.447 1.445 3.37 3.361-3.37 3.359z"/>
        <path fill="#46EBC8" fill-rule="nonzero" d="M24.605 8.189l-3.373 3.361-3.373 3.359-1.447 1.445c-1.95 1.944-4.883 2.526-7.432 1.474-2.548-1.052-4.21-3.53-4.21-6.28 0-2.748 1.662-5.227 4.21-6.278 2.549-1.052 5.482-.47 7.432 1.474l1.447 1.445 3.373-3.362-1.45-1.445c-4.525-4.51-11.863-4.51-16.388 0-4.525 4.51-4.525 11.823 0 16.333 4.525 4.51 11.863 4.51 16.388 0l1.45-1.445 3.373-3.361 3.37-3.359-3.37-3.361z"/>
        <path fill="#FF00A3" fill-rule="nonzero" d="M39.067 3.382c-4.525-4.508-11.86-4.508-16.385 0l-1.45 1.445-3.373 3.362-3.37 3.361 3.37 3.359 3.373-3.359 3.373-3.361 1.447-1.445c1.95-1.944 4.883-2.526 7.432-1.474 2.548 1.051 4.21 3.53 4.21 6.279s-1.662 5.227-4.21 6.279c-2.549 1.052-5.482.47-7.432-1.474l-1.447-1.445-3.373 3.361 1.45 1.445c2.916 2.97 7.21 4.15 11.242 3.089 4.032-1.062 7.18-4.2 8.245-8.219 1.064-4.018-.12-8.297-3.102-11.203z"/>
        <path fill="url(#prefix__a)" fill-rule="nonzero" d="M19.782 3.382c-2.17-2.168-5.12-3.384-8.193-3.38-.235 0-.473 0-.712.025v4.768c2.05-.227 4.091.49 5.545 1.949l1.446 1.445 3.373-3.362-1.459-1.445z"/>
        <path fill="url(#prefix__b)" fill-rule="nonzero" d="M22.682 19.715c2.168 2.165 5.11 3.381 8.18 3.38.235 0 .474 0 .712-.025v-4.752c-.238.022-.48.038-.722.038-1.81.005-3.546-.712-4.823-1.99l-1.446-1.445-3.351 3.35 1.45 1.444z"/>
        <g fill="#011627" fill-rule="nonzero">
            <path d="M7.727 4.457c-.132-.745-.744-1.906-2.463-1.906-1.288 0-2.122.821-2.122 1.716 0 .741.48 1.332 1.471 1.521l1.884.369c2.463.475 3.783 2.076 3.783 3.979 0 2.075-1.739 4.17-4.894 4.17C1.796 14.3.21 11.996 0 10.075l2.447-.642c.112 1.331 1.05 2.531 2.958 2.531 1.414 0 2.2-.706 2.2-1.655 0-.783-.593-1.393-1.646-1.604l-1.89-.38C1.91 7.887.528 6.498.528 4.476c0-2.4 2.16-4.225 4.72-4.225 3.287 0 4.546 1.98 4.851 3.5l-2.372.707zM14.768 14.015h-2.534V.218h2.543v5.198c.612-.725 1.642-1.03 2.54-1.03 2.39 0 3.497 1.656 3.497 3.712v5.904h-2.55V8.547c0-1.049-.518-1.867-1.739-1.867-1.072 0-1.703.799-1.757 1.829v5.506zM24.642 0c.864-.002 1.566.693 1.57 1.554.005.86-.69 1.563-1.553 1.571-.864.008-1.571-.682-1.582-1.543-.005-.417.157-.82.451-1.116.294-.298.695-.465 1.114-.466zm-1.26 14.015v-9.37h2.541v9.37h-2.54zM28.634 18.234V4.646H31.1v1.142c.422-.722 1.471-1.35 2.897-1.35 2.753 0 4.337 2.094 4.337 4.873 0 2.836-1.777 4.931-4.433 4.931-1.288 0-2.254-.513-2.71-1.142v5.134h-2.557zm4.848-11.532c-1.287 0-2.35.963-2.35 2.628s1.05 2.647 2.35 2.647c1.301 0 2.331-.962 2.331-2.647 0-1.684-1.027-2.628-2.33-2.628zM40.327 18.234V4.646h2.463v1.142c.422-.722 1.471-1.35 2.897-1.35 2.753 0 4.337 2.094 4.337 4.873 0 2.836-1.774 4.931-4.43 4.931-1.288 0-2.254-.513-2.714-1.142v5.134h-2.553zm4.852-11.532c-1.288 0-2.35.963-2.35 2.628s1.052 2.647 2.35 2.647c1.297 0 2.33-.962 2.33-2.647 0-1.684-1.03-2.628-2.33-2.628zM66.392 8.93v5.085h-2.647V.517h5.061c2.676 0 4.453 1.767 4.453 4.206 0 2.438-1.777 4.206-4.453 4.206h-2.414zm2.102-2.266c1.317 0 2.118-.76 2.118-1.925s-.801-1.925-2.118-1.925h-2.083v3.85h2.083zM80.641 7.158c-.251-.049-.507-.074-.763-.074-1.288 0-2.427.642-2.427 2.647v4.284h-2.54v-9.37h2.462v1.39C77.95 4.8 79.247 4.57 80.05 4.57c.198.002.395.015.592.038v2.551zM91.494 9.33c0 2.888-2.122 4.97-4.93 4.97-2.807 0-4.928-2.095-4.928-4.97 0-2.875 2.118-4.97 4.929-4.97 2.81 0 4.929 2.076 4.929 4.97zm-2.544 0c0-1.77-1.146-2.666-2.385-2.666-1.24 0-2.389.895-2.389 2.666s1.146 2.666 2.389 2.666c1.243 0 2.385-.895 2.385-2.666zM57.89 4.569v5.502c-.059 1.03-.687 1.83-1.759 1.83-1.223 0-1.738-.819-1.738-1.865V4.582h-2.54v5.903c0 2.057 1.107 3.712 3.496 3.712.898 0 1.932-.32 2.54-1.026v.426c0 1.771-1.146 2.667-2.386 2.667h-2.311v2.303h2.311c2.54.06 4.687-1.865 4.894-4.389l.035-9.625-2.543.016z" transform="translate(50.07 4.687)"/>
        </g>
    </g>
</svg>
